<svg version="1.1" xmlns="http://www.w3.org/2000/svg" xmlns:xlink="http://www.w3.org/1999/xlink" width="138.25" height="166.98372" viewBox="0,0,138.25,166.98372"><g transform="translate(-181.75,-102.07372)"><g data-paper-data="{&quot;isPaintingLayer&quot;:true}" fill-rule="nonzero" stroke="none" stroke-linecap="butt" stroke-linejoin="miter" stroke-miterlimit="10" stroke-dasharray="" stroke-dashoffset="0" style="mix-blend-mode: normal"><path d="M181.95833,269.05744v-154.55743h137.91667v154.55743z" fill="#64cc3b" stroke-width="0"/><path d="M181.75,258.50002v-156.42629h138.25v156.42629z" fill="#c6ffb3" stroke-width="0"/><path d="M188,253.25002v-142h125.5v142z" fill="#8dff66" stroke-width="0"/><path d="M276.52018,201.46925c-3.26052,9.03459 -12.12352,14.52601 -26.33659,16.32285c-0.64605,0.08075 -1.28201,0.13123 -1.91796,0.15141c-0.82775,1.21134 -1.90787,2.26117 -3.17977,3.07883c-3.33118,2.12994 -6.4504,3.16968 -9.52923,3.16968c-6.32926,0 -13.14306,-4.72423 -13.14306,-15.1014c0,-0.70662 0.03029,-1.62522 0.10095,-2.89713c0.03029,-0.5451 0.06057,-0.96907 0.07066,-1.28201c-0.17161,-0.78737 -0.26246,-1.58483 -0.26246,-2.3924v-4.88575c0,-0.79746 0.08075,-1.59494 0.24227,-2.3924c0.01009,-0.67634 0.04038,-1.43342 0.09086,-2.26117c-0.24227,-0.88832 -0.42396,-1.91796 -0.42396,-3.06874c0,-0.52491 0.04038,-1.04983 0.11104,-1.56465c0.38359,-2.70533 1.58483,-5.42076 3.61384,-7.59108c-0.69652,-1.94824 -1.05992,-4.00752 -1.05992,-6.11728v-5.14821c0,-2.08956 0.41387,-4.69395 2.44287,-11.17463c0.84794,-2.7861 1.1205,-3.65422 1.49399,-4.46178c1.98862,-4.46178 4.98669,-6.69267 7.16711,-7.79297c3.56336,-1.77664 7.38919,-2.68515 11.36644,-2.68515c1.83721,0 3.59365,0.1918 5.26934,0.55519c0.747,-0.50473 1.54446,-0.92869 2.3924,-1.28201c1.08012,-0.46435 2.23088,-0.78737 3.50279,-0.98926c3.17977,-0.5451 6.54124,0.13123 9.46866,1.90787c3.07883,1.87758 6.6119,5.77407 6.17785,13.78911c-0.07066,1.41323 -0.1918,3.30091 -0.3735,5.76398c-0.01009,0.06057 -0.01009,0.12114 -0.0202,0.1817c-0.16152,1.78673 -0.39369,4.45168 -0.70662,7.97467c0.08075,1.36276 0.05047,2.88703 -0.07066,4.68386c-0.05047,0.68643 -0.16152,1.37285 -0.34321,2.0391c-0.04038,0.15141 -0.08075,0.29275 -0.12114,0.42396c1.36276,1.74635 2.29146,3.4927 2.92742,5.00687c0.59557,1.20125 1.1003,2.5842 1.54446,4.26998c0.17161,0.63596 0.28264,1.28201 0.33312,1.93815c0.45425,5.66303 0.22207,9.00431 -0.82775,11.83078z" fill="#00cc07" stroke-width="1"/><path d="M265.51358,191.68088c0.29577,3.67138 0.2352,6.03753 -0.17766,7.10351c-1.71809,4.85445 -7.49013,7.902 -17.31412,9.14564c-3.31605,0.41489 -6.63008,-1.1538 -9.94612,-4.70606c0,0.53299 0.11811,2.13095 0.35634,4.7959c0.17766,1.95329 0.14738,3.55125 -0.08883,4.79388c-1.48087,0.94686 -2.66394,1.42131 -3.55226,1.42131c-1.36276,0 -2.04212,-1.33146 -2.04212,-3.99642c0,-0.47343 0.02927,-1.2275 0.08883,-2.26319c0.05855,-1.03468 0.08883,-1.76049 0.08883,-2.17537c0,-1.00642 -0.08883,-1.71607 -0.2665,-2.13095v-4.88372c0,-0.11811 0.02927,-0.25136 0.08883,-0.39974c0.05855,-0.14738 0.11811,-0.28063 0.17766,-0.39974c-0.05956,-0.82775 -0.03029,-2.10067 0.08883,-3.81774c0.11811,-1.06598 0.11811,-1.74534 0,-2.04212c-0.29678,-0.59053 -0.44315,-0.94585 -0.44315,-1.06497c0.2352,-1.65752 1.45058,-2.48628 3.64008,-2.48628c1.4203,0 2.27833,0.50372 2.57511,1.50913c0,0.94686 0.11811,2.3389 0.35533,4.17307c0.35634,2.13095 1.47986,4.26291 3.3746,6.39285c2.07139,2.42773 4.05395,3.55226 5.94971,3.3746c2.13095,-0.2352 4.2619,-0.73892 6.39285,-1.50913c2.95971,-1.06598 4.73533,-2.30861 5.32788,-3.72891c0.41286,-1.06598 0.62081,-2.1895 0.62081,-3.3746c0,-3.60979 -1.33146,-6.30402 -3.99541,-8.07966c-1.1851,-0.7692 -3.3746,-1.39102 -6.57153,-1.86547c-1.83518,-0.2352 -2.96072,-0.35533 -3.37358,-0.35533c-2.84161,0.05956 -5.49142,-0.85803 -7.94742,-2.75277c-2.457,-1.89373 -3.6845,-4.08525 -3.6845,-6.57153v-5.14921c0,-1.12352 0.6511,-3.75818 1.9543,-7.902c0.59053,-1.9543 0.91658,-2.98898 0.97715,-3.1081c0.53198,-1.24263 1.21235,-2.07139 2.04111,-2.48628c2.01183,-1.00541 4.14278,-1.50913 6.39285,-1.50913c4.38001,0 7.60623,1.77562 9.67863,5.32687c0.17766,0.17766 0.47343,0.44416 0.88832,0.79949c0.05855,-0.82775 0.17766,-2.10067 0.35533,-3.81774c-0.05956,-0.7692 -0.11912,-1.50913 -0.17766,-2.21978c0,-0.82775 0.41286,-1.39001 1.24263,-1.68679c0.23621,-0.11811 0.56226,-0.20694 0.97715,-0.2665c0.59154,-0.11811 1.22851,0.03029 1.90988,0.44315c0.67936,0.41489 0.961,1.65853 0.8429,3.72891c-0.05956,1.30219 -0.17766,3.13737 -0.35533,5.50453c-0.17766,1.9543 -0.44315,4.94328 -0.79949,8.96897c0.11811,0.94686 0.11811,2.25007 0,3.90657c-0.29678,1.12453 -1.1851,1.68679 -2.66394,1.68679c-0.77021,0 -1.50913,-0.20694 -2.21978,-0.62081c-0.35533,-1.12352 -0.53198,-1.59897 -0.53198,-1.42131c0.11709,-1.59796 -0.20795,-3.72891 -0.97715,-6.39285c-0.65211,-1.36074 -1.55355,-3.29889 -2.70837,-5.81545c-1.15481,-2.51555 -2.67909,-3.86318 -4.57282,-4.04084c-2.36817,-0.17766 -3.90657,0.62182 -4.61723,2.39745c-0.23621,0.77021 -0.56328,1.89575 -0.97614,3.3746c-0.71065,2.19051 -1.15481,4.29219 -1.33248,6.30402c-0.05956,0.65211 -0.11912,0.9186 -0.17766,0.79949c0.17766,1.1851 0.3846,2.36817 0.62182,3.55226c0.29577,1.47986 1.02156,2.6054 2.17537,3.37358c1.15481,0.77021 3.35845,1.24263 6.61494,1.4203c7.99083,0.47546 12.9331,3.2575 14.82784,8.34715c0.29476,0.47444 0.59053,1.27292 0.88731,2.39643z" fill="#ffffff" stroke-width="1"/></g></g></svg>